<mxfile host="Electron" agent="Mozilla/5.0 (Windows NT 10.0; Win64; x64) AppleWebKit/537.36 (KHTML, like Gecko) draw.io/28.0.6 Chrome/138.0.7204.100 Electron/37.2.3 Safari/537.36" version="28.0.6">
  <diagram name="Страница — 1" id="pOLxNJGqRbkehDVrlaAr">
    <mxGraphModel dx="1691" dy="842" grid="1" gridSize="10" guides="1" tooltips="1" connect="1" arrows="1" fold="1" page="1" pageScale="1" pageWidth="1169" pageHeight="827" math="0" shadow="0">
      <root>
        <mxCell id="0" />
        <mxCell id="1" parent="0" />
        <mxCell id="JA2Hr6hvb1wfSvfdH58w-3" value="" style="group" vertex="1" connectable="0" parent="1">
          <mxGeometry x="46" y="560" width="274" height="200" as="geometry" />
        </mxCell>
        <mxCell id="b11ljk4zxKzeNnOT7CcZ-7" value="kafka PostEventListener" style="rounded=1;whiteSpace=wrap;html=1;strokeColor=default;align=center;verticalAlign=middle;fontFamily=Excalifont;fontSize=12;fontColor=default;fillColor=none;gradientColor=none;hachureGap=4;fontSource=https%3A%2F%2Ffonts.googleapis.com%2Fcss%3Ffamily%3DArchitects%2BDaughter;sketch=1;curveFitting=1;jiggle=2;" parent="JA2Hr6hvb1wfSvfdH58w-3" vertex="1">
          <mxGeometry width="140" height="60" as="geometry" />
        </mxCell>
        <mxCell id="b11ljk4zxKzeNnOT7CcZ-12" value="&lt;div&gt;- Отправляю в Redis.Users информацию об авторе&lt;/div&gt;- Отправляю в Redis.Post информацию о посте&lt;div&gt;- По authorId нахожу всех подписчиков. Полученный массив подписчиков разбиваю на порции и отправляю в kafka уже информацию, которая должна добавляться в Redis.Feeds (class NewsFeedRedisEntity). Cписок всех постов, которые составляют его ленту&lt;/div&gt;" style="text;html=1;align=left;verticalAlign=top;whiteSpace=wrap;rounded=1;fontFamily=Excalifont;fontSize=12;fontColor=default;sketch=1;curveFitting=1;jiggle=2;" parent="JA2Hr6hvb1wfSvfdH58w-3" vertex="1">
          <mxGeometry y="60" width="274" height="140" as="geometry" />
        </mxCell>
        <mxCell id="b11ljk4zxKzeNnOT7CcZ-78" value="NewsFeedEventDto" style="text;html=1;align=left;verticalAlign=middle;whiteSpace=wrap;rounded=1;fontFamily=Excalifont;fontSize=8;fontColor=#0000CC;sketch=1;curveFitting=1;jiggle=2;" parent="JA2Hr6hvb1wfSvfdH58w-3" vertex="1">
          <mxGeometry x="184" y="27" width="60" height="20" as="geometry" />
        </mxCell>
        <mxCell id="b11ljk4zxKzeNnOT7CcZ-13" value="" style="rounded=1;whiteSpace=wrap;html=1;align=center;verticalAlign=top;fontFamily=Excalifont;fontSize=12;fontColor=default;fillColor=none;gradientColor=none;arcSize=3;dashed=1;dashPattern=12 12;strokeColor=#999999;sketch=1;curveFitting=1;jiggle=2;" parent="1" vertex="1">
          <mxGeometry x="740" y="20" width="390" height="340" as="geometry" />
        </mxCell>
        <mxCell id="vzBe8buejQcR76ug3RMC-5" value="Post Service" style="rounded=1;whiteSpace=wrap;html=1;strokeColor=default;align=center;verticalAlign=middle;fontFamily=Excalifont;fontSize=12;fontColor=default;fillColor=none;gradientColor=none;glass=0;shadow=0;sketch=1;curveFitting=1;jiggle=2;" parent="1" vertex="1">
          <mxGeometry x="200" y="192" width="140" height="60" as="geometry" />
        </mxCell>
        <mxCell id="vzBe8buejQcR76ug3RMC-6" value="пользователь,&lt;div&gt;создавший post&lt;/div&gt;" style="shape=umlActor;verticalLabelPosition=bottom;verticalAlign=top;html=1;outlineConnect=0;rounded=1;strokeColor=default;align=center;fontFamily=Excalifont;fontSize=12;fontColor=default;fillColor=none;gradientColor=none;sketch=1;curveFitting=1;jiggle=2;" parent="1" vertex="1">
          <mxGeometry x="80" y="192" width="30" height="60" as="geometry" />
        </mxCell>
        <mxCell id="vzBe8buejQcR76ug3RMC-7" value="" style="endArrow=classic;html=1;rounded=1;hachureGap=4;fontFamily=Excalifont;fontSource=https%3A%2F%2Ffonts.googleapis.com%2Fcss%3Ffamily%3DArchitects%2BDaughter;fontSize=12;fontColor=default;entryX=0;entryY=0.5;entryDx=0;entryDy=0;sketch=1;curveFitting=1;jiggle=2;" parent="1" source="vzBe8buejQcR76ug3RMC-6" target="vzBe8buejQcR76ug3RMC-5" edge="1">
          <mxGeometry width="50" height="50" relative="1" as="geometry">
            <mxPoint x="560" y="132" as="sourcePoint" />
            <mxPoint x="610" y="82" as="targetPoint" />
          </mxGeometry>
        </mxCell>
        <mxCell id="vzBe8buejQcR76ug3RMC-9" style="rounded=1;hachureGap=4;orthogonalLoop=1;jettySize=auto;html=1;entryX=0.5;entryY=1;entryDx=0;entryDy=0;entryPerimeter=0;fontFamily=Excalifont;fontSource=https%3A%2F%2Ffonts.googleapis.com%2Fcss%3Ffamily%3DArchitects%2BDaughter;fontSize=12;fontColor=default;edgeStyle=orthogonalEdgeStyle;exitX=0.5;exitY=0;exitDx=0;exitDy=0;sketch=1;curveFitting=1;jiggle=2;" parent="1" source="vzBe8buejQcR76ug3RMC-5" target="vzBe8buejQcR76ug3RMC-8" edge="1">
          <mxGeometry relative="1" as="geometry">
            <mxPoint x="420" y="120" as="sourcePoint" />
          </mxGeometry>
        </mxCell>
        <mxCell id="vzBe8buejQcR76ug3RMC-150" value="&lt;font style=&quot;font-size: 10px; color: rgb(0, 0, 204);&quot;&gt;PostEventDto&lt;/font&gt;" style="edgeStyle=orthogonalEdgeStyle;rounded=1;hachureGap=4;orthogonalLoop=1;jettySize=auto;html=1;fontFamily=Excalifont;fontSource=https%3A%2F%2Ffonts.googleapis.com%2Fcss%3Ffamily%3DArchitects%2BDaughter;fontSize=12;fontColor=default;entryX=0.5;entryY=0;entryDx=0;entryDy=0;sketch=1;curveFitting=1;jiggle=2;exitX=0.5;exitY=1;exitDx=0;exitDy=0;" parent="1" source="vzBe8buejQcR76ug3RMC-5" target="b11ljk4zxKzeNnOT7CcZ-62" edge="1">
          <mxGeometry x="0.3182" relative="1" as="geometry">
            <mxPoint x="270" y="520" as="targetPoint" />
            <mxPoint x="269.9999999999998" y="412" as="sourcePoint" />
            <mxPoint as="offset" />
          </mxGeometry>
        </mxCell>
        <mxCell id="vzBe8buejQcR76ug3RMC-151" value="" style="group;rounded=1;sketch=1;curveFitting=1;jiggle=2;" parent="1" vertex="1" connectable="0">
          <mxGeometry x="241" y="68" width="140" height="82" as="geometry" />
        </mxCell>
        <mxCell id="vzBe8buejQcR76ug3RMC-8" value="DB" style="shape=cylinder3;whiteSpace=wrap;html=1;boundedLbl=1;backgroundOutline=1;size=15;rounded=1;strokeColor=default;align=center;verticalAlign=middle;fontFamily=Excalifont;fontSize=12;fontColor=default;fillColor=none;gradientColor=none;sketch=1;curveFitting=1;jiggle=2;" parent="vzBe8buejQcR76ug3RMC-151" vertex="1">
          <mxGeometry y="10" width="60" height="72" as="geometry" />
        </mxCell>
        <mxCell id="vzBe8buejQcR76ug3RMC-10" value="сохранение в таблицу POST" style="text;html=1;align=left;verticalAlign=middle;whiteSpace=wrap;rounded=1;fontFamily=Excalifont;fontSize=12;fontColor=default;sketch=1;curveFitting=1;jiggle=2;" parent="vzBe8buejQcR76ug3RMC-151" vertex="1">
          <mxGeometry x="69" y="34.569488795518204" width="120" height="12.862745098039213" as="geometry" />
        </mxCell>
        <mxCell id="b11ljk4zxKzeNnOT7CcZ-3" value="Отправить в KAFKA информацию о посте" style="text;html=1;align=left;verticalAlign=top;whiteSpace=wrap;rounded=1;fontFamily=Excalifont;sketch=1;curveFitting=1;jiggle=2;" parent="1" vertex="1">
          <mxGeometry x="280" y="260" width="120" height="40" as="geometry" />
        </mxCell>
        <mxCell id="b11ljk4zxKzeNnOT7CcZ-5" value="&lt;div&gt;&lt;u&gt;PostEventDto&lt;/u&gt;&lt;/div&gt;&lt;div&gt;authorId&lt;/div&gt;&lt;div&gt;&lt;span style=&quot;background-color: transparent;&quot;&gt;postId&lt;/span&gt;&lt;/div&gt;&lt;div&gt;timestamp&lt;/div&gt;" style="text;html=1;align=left;verticalAlign=top;whiteSpace=wrap;rounded=1;fontFamily=Excalifont;fontSize=10;fontColor=#0000CC;labelBackgroundColor=none;labelBorderColor=none;textShadow=0;strokeColor=none;perimeterSpacing=0;fillColor=none;sketch=1;curveFitting=1;jiggle=2;" parent="1" vertex="1">
          <mxGeometry x="10" y="370" width="90" height="49" as="geometry" />
        </mxCell>
        <mxCell id="b11ljk4zxKzeNnOT7CcZ-66" style="rounded=1;hachureGap=4;orthogonalLoop=1;jettySize=auto;html=1;exitX=1;exitY=0.75;exitDx=0;exitDy=0;fontFamily=Excalifont;fontSource=https%3A%2F%2Ffonts.googleapis.com%2Fcss%3Ffamily%3DArchitects%2BDaughter;fontSize=12;fontColor=#0000CC;entryX=0;entryY=0.5;entryDx=0;entryDy=0;shadow=0;strokeColor=default;align=center;verticalAlign=middle;labelBorderColor=none;labelBackgroundColor=default;endArrow=classic;flowAnimation=0;sketch=1;curveFitting=1;jiggle=2;" parent="1" source="b11ljk4zxKzeNnOT7CcZ-7" target="b11ljk4zxKzeNnOT7CcZ-65" edge="1">
          <mxGeometry relative="1" as="geometry" />
        </mxCell>
        <mxCell id="b11ljk4zxKzeNnOT7CcZ-19" value="Users" style="shape=table;startSize=30;container=1;collapsible=0;childLayout=tableLayout;fixedRows=1;rowLines=0;fontStyle=0;strokeColor=default;fontSize=12;rounded=1;align=center;verticalAlign=middle;fontFamily=Excalifont;fontColor=default;fillColor=none;gradientColor=none;swimlaneLine=1;sketch=1;curveFitting=1;jiggle=2;" parent="1" vertex="1">
          <mxGeometry x="780" y="80" width="190" height="50" as="geometry" />
        </mxCell>
        <mxCell id="b11ljk4zxKzeNnOT7CcZ-20" value="" style="shape=tableRow;horizontal=0;startSize=0;swimlaneHead=0;swimlaneBody=0;top=0;left=0;bottom=0;right=0;collapsible=0;dropTarget=0;fillColor=none;points=[[0,0.5],[1,0.5]];portConstraint=eastwest;strokeColor=inherit;fontSize=16;rounded=1;align=center;verticalAlign=middle;fontFamily=Excalifont;fontColor=default;sketch=1;curveFitting=1;jiggle=2;" parent="b11ljk4zxKzeNnOT7CcZ-19" vertex="1">
          <mxGeometry y="30" width="190" height="20" as="geometry" />
        </mxCell>
        <mxCell id="b11ljk4zxKzeNnOT7CcZ-21" value="userId" style="shape=partialRectangle;html=1;whiteSpace=wrap;connectable=0;fillColor=none;top=0;left=0;bottom=0;right=0;overflow=hidden;pointerEvents=1;strokeColor=inherit;fontSize=12;rounded=1;align=center;verticalAlign=middle;fontFamily=Excalifont;fontColor=default;sketch=1;curveFitting=1;jiggle=2;" parent="b11ljk4zxKzeNnOT7CcZ-20" vertex="1">
          <mxGeometry width="64" height="20" as="geometry">
            <mxRectangle width="64" height="20" as="alternateBounds" />
          </mxGeometry>
        </mxCell>
        <mxCell id="b11ljk4zxKzeNnOT7CcZ-22" value="RedisUserEntity" style="shape=partialRectangle;html=1;whiteSpace=wrap;connectable=0;fillColor=none;top=0;left=0;bottom=0;right=0;align=left;spacingLeft=6;overflow=hidden;strokeColor=inherit;fontSize=12;rounded=1;verticalAlign=middle;fontFamily=Excalifont;fontColor=default;sketch=1;curveFitting=1;jiggle=2;" parent="b11ljk4zxKzeNnOT7CcZ-20" vertex="1">
          <mxGeometry x="64" width="126" height="20" as="geometry">
            <mxRectangle width="126" height="20" as="alternateBounds" />
          </mxGeometry>
        </mxCell>
        <mxCell id="b11ljk4zxKzeNnOT7CcZ-39" value="Posts" style="shape=table;startSize=30;container=1;collapsible=0;childLayout=tableLayout;fixedRows=1;rowLines=0;fontStyle=0;strokeColor=default;fontSize=12;rounded=1;align=center;verticalAlign=middle;fontFamily=Excalifont;fontColor=default;fillColor=none;gradientColor=none;swimlaneLine=1;sketch=1;curveFitting=1;jiggle=2;" parent="1" vertex="1">
          <mxGeometry x="780" y="172" width="190" height="50" as="geometry" />
        </mxCell>
        <mxCell id="b11ljk4zxKzeNnOT7CcZ-40" value="" style="shape=tableRow;horizontal=0;startSize=0;swimlaneHead=0;swimlaneBody=0;top=0;left=0;bottom=0;right=0;collapsible=0;dropTarget=0;fillColor=none;points=[[0,0.5],[1,0.5]];portConstraint=eastwest;strokeColor=inherit;fontSize=16;rounded=1;align=center;verticalAlign=middle;fontFamily=Excalifont;fontColor=default;sketch=1;curveFitting=1;jiggle=2;" parent="b11ljk4zxKzeNnOT7CcZ-39" vertex="1">
          <mxGeometry y="30" width="190" height="20" as="geometry" />
        </mxCell>
        <mxCell id="b11ljk4zxKzeNnOT7CcZ-41" value="postId" style="shape=partialRectangle;html=1;whiteSpace=wrap;connectable=0;fillColor=none;top=0;left=0;bottom=0;right=0;overflow=hidden;pointerEvents=1;strokeColor=inherit;fontSize=12;rounded=1;align=center;verticalAlign=middle;fontFamily=Excalifont;fontColor=default;sketch=1;curveFitting=1;jiggle=2;" parent="b11ljk4zxKzeNnOT7CcZ-40" vertex="1">
          <mxGeometry width="64" height="20" as="geometry">
            <mxRectangle width="64" height="20" as="alternateBounds" />
          </mxGeometry>
        </mxCell>
        <mxCell id="b11ljk4zxKzeNnOT7CcZ-42" value="RedisPostEntity" style="shape=partialRectangle;html=1;whiteSpace=wrap;connectable=0;fillColor=none;top=0;left=0;bottom=0;right=0;align=left;spacingLeft=6;overflow=hidden;strokeColor=inherit;fontSize=12;rounded=1;verticalAlign=middle;fontFamily=Excalifont;fontColor=default;sketch=1;curveFitting=1;jiggle=2;" parent="b11ljk4zxKzeNnOT7CcZ-40" vertex="1">
          <mxGeometry x="64" width="126" height="20" as="geometry">
            <mxRectangle width="126" height="20" as="alternateBounds" />
          </mxGeometry>
        </mxCell>
        <mxCell id="b11ljk4zxKzeNnOT7CcZ-52" value="Feeds" style="shape=table;startSize=30;container=1;collapsible=0;childLayout=tableLayout;fixedRows=1;rowLines=0;fontStyle=0;strokeColor=default;fontSize=12;rounded=1;align=center;verticalAlign=middle;fontFamily=Excalifont;fontColor=default;fillColor=none;gradientColor=none;swimlaneLine=1;sketch=1;curveFitting=1;jiggle=2;" parent="1" vertex="1">
          <mxGeometry x="780" y="260" width="190" height="50" as="geometry" />
        </mxCell>
        <mxCell id="b11ljk4zxKzeNnOT7CcZ-53" value="" style="shape=tableRow;horizontal=0;startSize=0;swimlaneHead=0;swimlaneBody=0;top=0;left=0;bottom=0;right=0;collapsible=0;dropTarget=0;fillColor=none;points=[[0,0.5],[1,0.5]];portConstraint=eastwest;strokeColor=inherit;fontSize=16;rounded=1;align=center;verticalAlign=middle;fontFamily=Excalifont;fontColor=default;sketch=1;curveFitting=1;jiggle=2;" parent="b11ljk4zxKzeNnOT7CcZ-52" vertex="1">
          <mxGeometry y="30" width="190" height="20" as="geometry" />
        </mxCell>
        <mxCell id="b11ljk4zxKzeNnOT7CcZ-54" value="userId" style="shape=partialRectangle;html=1;whiteSpace=wrap;connectable=0;fillColor=none;top=0;left=0;bottom=0;right=0;overflow=hidden;pointerEvents=1;strokeColor=inherit;fontSize=12;rounded=1;align=center;verticalAlign=middle;fontFamily=Excalifont;fontColor=default;sketch=1;curveFitting=1;jiggle=2;" parent="b11ljk4zxKzeNnOT7CcZ-53" vertex="1">
          <mxGeometry width="64" height="20" as="geometry">
            <mxRectangle width="64" height="20" as="alternateBounds" />
          </mxGeometry>
        </mxCell>
        <mxCell id="b11ljk4zxKzeNnOT7CcZ-55" value="ZSet(postId)" style="shape=partialRectangle;html=1;whiteSpace=wrap;connectable=0;fillColor=none;top=0;left=0;bottom=0;right=0;align=left;spacingLeft=6;overflow=hidden;strokeColor=inherit;fontSize=12;rounded=1;verticalAlign=middle;fontFamily=Excalifont;fontColor=default;sketch=1;curveFitting=1;jiggle=2;" parent="b11ljk4zxKzeNnOT7CcZ-53" vertex="1">
          <mxGeometry x="64" width="126" height="20" as="geometry">
            <mxRectangle width="126" height="20" as="alternateBounds" />
          </mxGeometry>
        </mxCell>
        <mxCell id="b11ljk4zxKzeNnOT7CcZ-63" value="PostEventDto" style="rounded=1;hachureGap=4;orthogonalLoop=1;jettySize=auto;html=1;exitX=0.5;exitY=1;exitDx=0;exitDy=0;fontFamily=Excalifont;fontSource=https%3A%2F%2Ffonts.googleapis.com%2Fcss%3Ffamily%3DArchitects%2BDaughter;fontSize=10;fontColor=#0000CC;entryX=0.5;entryY=0;entryDx=0;entryDy=0;sketch=1;curveFitting=1;jiggle=2;" parent="1" source="b11ljk4zxKzeNnOT7CcZ-62" target="b11ljk4zxKzeNnOT7CcZ-7" edge="1">
          <mxGeometry relative="1" as="geometry">
            <Array as="points">
              <mxPoint x="270" y="390" />
              <mxPoint x="150" y="530" />
            </Array>
          </mxGeometry>
        </mxCell>
        <mxCell id="b11ljk4zxKzeNnOT7CcZ-62" value="KAFKA&lt;div&gt;(post-topic)&lt;/div&gt;" style="rounded=1;whiteSpace=wrap;html=1;align=center;verticalAlign=middle;fontFamily=Excalifont;fontSize=12;fontColor=default;fillColor=none;gradientColor=none;sketch=1;curveFitting=1;jiggle=2;" parent="1" vertex="1">
          <mxGeometry x="218.13" y="340" width="103" height="40" as="geometry" />
        </mxCell>
        <mxCell id="b11ljk4zxKzeNnOT7CcZ-71" style="edgeStyle=orthogonalEdgeStyle;shape=connector;curved=0;rounded=1;hachureGap=4;orthogonalLoop=1;jettySize=auto;html=1;exitX=1;exitY=0.5;exitDx=0;exitDy=0;entryX=0;entryY=0.5;entryDx=0;entryDy=0;strokeColor=default;align=center;verticalAlign=middle;fontFamily=Excalifont;fontSource=https%3A%2F%2Ffonts.googleapis.com%2Fcss%3Ffamily%3DArchitects%2BDaughter;fontSize=12;fontColor=default;labelBackgroundColor=default;endArrow=classic;sketch=1;curveFitting=1;jiggle=2;" parent="1" source="b11ljk4zxKzeNnOT7CcZ-65" target="b11ljk4zxKzeNnOT7CcZ-70" edge="1">
          <mxGeometry relative="1" as="geometry" />
        </mxCell>
        <mxCell id="b11ljk4zxKzeNnOT7CcZ-65" value="KAFKA&lt;div&gt;(newsfeed-topic)&lt;/div&gt;" style="rounded=1;whiteSpace=wrap;html=1;align=center;verticalAlign=middle;fontFamily=Excalifont;fontSize=12;fontColor=default;fillColor=none;gradientColor=none;sketch=1;curveFitting=1;jiggle=2;strokeColor=default;" parent="1" vertex="1">
          <mxGeometry x="342.5" y="590" width="107.5" height="40" as="geometry" />
        </mxCell>
        <mxCell id="b11ljk4zxKzeNnOT7CcZ-77" value="&lt;u&gt;NewsFeedEventDto&lt;/u&gt;&lt;div&gt;postId&lt;/div&gt;&lt;div&gt;timeStamp&lt;/div&gt;&lt;div&gt;List&amp;lt;userId&amp;gt;&lt;/div&gt;" style="text;html=1;align=left;verticalAlign=top;whiteSpace=wrap;rounded=1;fontFamily=Excalifont;fontSize=10;fontColor=#0000CC;labelBackgroundColor=none;labelBorderColor=none;sketch=1;curveFitting=1;jiggle=2;" parent="1" vertex="1">
          <mxGeometry x="10" y="438" width="100" height="62" as="geometry" />
        </mxCell>
        <mxCell id="b11ljk4zxKzeNnOT7CcZ-88" value="&lt;font style=&quot;font-size: 10px;&quot;&gt;NewsFeedRedisEntity&lt;/font&gt;" style="shape=connector;rounded=1;hachureGap=4;orthogonalLoop=1;jettySize=auto;html=1;exitX=1;exitY=0.5;exitDx=0;exitDy=0;entryX=0;entryY=0.5;entryDx=0;entryDy=0;strokeColor=default;align=center;verticalAlign=middle;fontFamily=Excalifont;fontSource=https%3A%2F%2Ffonts.googleapis.com%2Fcss%3Ffamily%3DArchitects%2BDaughter;fontSize=12;fontColor=#0000CC;labelBackgroundColor=default;endArrow=classic;edgeStyle=entityRelationEdgeStyle;elbow=vertical;sketch=1;curveFitting=1;jiggle=2;" parent="1" source="b11ljk4zxKzeNnOT7CcZ-70" target="b11ljk4zxKzeNnOT7CcZ-52" edge="1">
          <mxGeometry relative="1" as="geometry">
            <Array as="points">
              <mxPoint x="720" y="250" />
              <mxPoint x="710" y="250" />
              <mxPoint x="770" y="370" />
            </Array>
          </mxGeometry>
        </mxCell>
        <mxCell id="b11ljk4zxKzeNnOT7CcZ-84" value="&lt;font style=&quot;font-size: 10px;&quot;&gt;RedisPostEntity&lt;/font&gt;" style="edgeStyle=entityRelationEdgeStyle;shape=connector;rounded=1;hachureGap=4;orthogonalLoop=1;jettySize=auto;html=1;exitX=1;exitY=0.5;exitDx=0;exitDy=0;entryX=0;entryY=0.5;entryDx=0;entryDy=0;strokeColor=default;align=center;verticalAlign=middle;fontFamily=Excalifont;fontSource=https%3A%2F%2Ffonts.googleapis.com%2Fcss%3Ffamily%3DArchitects%2BDaughter;fontSize=12;fontColor=#0000CC;labelBackgroundColor=default;endArrow=classic;curved=0;flowAnimation=0;shadow=0;labelBorderColor=none;sketch=1;curveFitting=1;jiggle=2;" parent="1" source="b11ljk4zxKzeNnOT7CcZ-7" target="b11ljk4zxKzeNnOT7CcZ-39" edge="1">
          <mxGeometry x="0.4483" y="-12" relative="1" as="geometry">
            <mxPoint as="offset" />
          </mxGeometry>
        </mxCell>
        <mxCell id="b11ljk4zxKzeNnOT7CcZ-89" value="&lt;font style=&quot;font-size: 10px;&quot;&gt;RedisUserEntity&lt;/font&gt;" style="edgeStyle=entityRelationEdgeStyle;shape=connector;curved=0;rounded=1;hachureGap=4;orthogonalLoop=1;jettySize=auto;html=1;exitX=1;exitY=0.25;exitDx=0;exitDy=0;entryX=0;entryY=0.5;entryDx=0;entryDy=0;strokeColor=default;align=center;verticalAlign=middle;fontFamily=Excalifont;fontSource=https%3A%2F%2Ffonts.googleapis.com%2Fcss%3Ffamily%3DArchitects%2BDaughter;fontSize=12;fontColor=#0000CC;labelBackgroundColor=default;endArrow=classic;shadow=0;labelBorderColor=none;flowAnimation=0;sketch=1;curveFitting=1;jiggle=2;" parent="1" source="b11ljk4zxKzeNnOT7CcZ-7" target="b11ljk4zxKzeNnOT7CcZ-19" edge="1">
          <mxGeometry x="0.4167" y="5" relative="1" as="geometry">
            <mxPoint as="offset" />
          </mxGeometry>
        </mxCell>
        <mxCell id="b11ljk4zxKzeNnOT7CcZ-90" value="key = feed:&amp;lt;userId&amp;gt;;&amp;nbsp;&lt;span style=&quot;background-color: light-dark(#ffffff, var(--ge-dark-color, #121212)); color: light-dark(rgb(0, 0, 0), rgb(255, 255, 255));&quot;&gt;value = zset(postId, cost=post_timestamp)&lt;/span&gt;" style="text;html=1;align=left;verticalAlign=middle;whiteSpace=wrap;rounded=0;fontFamily=Excalifont;fontSource=https%3A%2F%2Ffonts.googleapis.com%2Fcss%3Ffamily%3DArchitects%2BDaughter;fontSize=10;fontColor=default;labelBackgroundColor=default;sketch=1;curveFitting=1;jiggle=2;" parent="1" vertex="1">
          <mxGeometry x="780" y="312" width="350" height="20" as="geometry" />
        </mxCell>
        <mxCell id="b11ljk4zxKzeNnOT7CcZ-92" value="key = post:&amp;lt;postId&amp;gt;;&amp;nbsp;&lt;span style=&quot;background-color: light-dark(#ffffff, var(--ge-dark-color, #121212)); color: light-dark(rgb(0, 0, 0), rgb(255, 255, 255));&quot;&gt;value = json(post)&lt;/span&gt;" style="text;html=1;align=left;verticalAlign=middle;whiteSpace=wrap;rounded=0;fontFamily=Excalifont;fontSource=https%3A%2F%2Ffonts.googleapis.com%2Fcss%3Ffamily%3DArchitects%2BDaughter;fontSize=10;fontColor=default;labelBackgroundColor=default;sketch=1;curveFitting=1;jiggle=2;" parent="1" vertex="1">
          <mxGeometry x="780" y="222" width="350" height="20" as="geometry" />
        </mxCell>
        <mxCell id="b11ljk4zxKzeNnOT7CcZ-93" value="key = user:&amp;lt;userId&amp;gt;;&amp;nbsp;&lt;span style=&quot;background-color: light-dark(#ffffff, var(--ge-dark-color, #121212)); color: light-dark(rgb(0, 0, 0), rgb(255, 255, 255));&quot;&gt;value = json(user)&lt;/span&gt;" style="text;html=1;align=left;verticalAlign=middle;whiteSpace=wrap;rounded=0;fontFamily=Excalifont;fontSource=https%3A%2F%2Ffonts.googleapis.com%2Fcss%3Ffamily%3DArchitects%2BDaughter;fontSize=10;fontColor=default;labelBackgroundColor=default;sketch=1;curveFitting=1;jiggle=2;" parent="1" vertex="1">
          <mxGeometry x="780" y="129" width="350" height="20" as="geometry" />
        </mxCell>
        <mxCell id="b11ljk4zxKzeNnOT7CcZ-95" value="" style="group" parent="1" vertex="1" connectable="0">
          <mxGeometry x="1040" y="30" width="80" height="32" as="geometry" />
        </mxCell>
        <mxCell id="b11ljk4zxKzeNnOT7CcZ-17" value="" style="rhombus;whiteSpace=wrap;html=1;rounded=1;align=center;verticalAlign=middle;fontFamily=Excalifont;fontSize=12;fontColor=default;fillColor=default;gradientColor=none;" parent="b11ljk4zxKzeNnOT7CcZ-95" vertex="1">
          <mxGeometry y="12" width="80" height="20" as="geometry" />
        </mxCell>
        <mxCell id="b11ljk4zxKzeNnOT7CcZ-16" value="" style="rhombus;whiteSpace=wrap;html=1;rounded=1;align=center;verticalAlign=middle;fontFamily=Excalifont;fontSize=12;fontColor=default;fillColor=default;gradientColor=none;" parent="b11ljk4zxKzeNnOT7CcZ-95" vertex="1">
          <mxGeometry y="6" width="80" height="20" as="geometry" />
        </mxCell>
        <mxCell id="b11ljk4zxKzeNnOT7CcZ-14" value="Redis" style="rhombus;whiteSpace=wrap;html=1;rounded=1;align=center;verticalAlign=middle;fontFamily=Excalifont;fontSize=10;fontColor=default;fillColor=default;gradientColor=none;" parent="b11ljk4zxKzeNnOT7CcZ-95" vertex="1">
          <mxGeometry width="80" height="20" as="geometry" />
        </mxCell>
        <mxCell id="JA2Hr6hvb1wfSvfdH58w-1" value="" style="group" vertex="1" connectable="0" parent="1">
          <mxGeometry x="550" y="580" width="220" height="150" as="geometry" />
        </mxCell>
        <mxCell id="b11ljk4zxKzeNnOT7CcZ-70" value="kafka&lt;div&gt;FeedsListener&lt;/div&gt;" style="rounded=1;whiteSpace=wrap;html=1;strokeColor=default;align=center;verticalAlign=middle;fontFamily=Excalifont;fontSize=12;fontColor=default;fillColor=none;gradientColor=none;hachureGap=4;fontSource=https%3A%2F%2Ffonts.googleapis.com%2Fcss%3Ffamily%3DArchitects%2BDaughter;sketch=1;curveFitting=1;jiggle=2;" parent="JA2Hr6hvb1wfSvfdH58w-1" vertex="1">
          <mxGeometry width="140" height="60" as="geometry" />
        </mxCell>
        <mxCell id="b11ljk4zxKzeNnOT7CcZ-74" value="из FeedsDto для каждого userId получаю элемент из Redis.Feeds и добавляю новый, при этом убираю все элементы, у которых range больше 500." style="text;html=1;align=left;verticalAlign=top;whiteSpace=wrap;rounded=1;fontFamily=Excalifont;fontSize=12;fontColor=default;sketch=1;curveFitting=1;jiggle=2;" parent="JA2Hr6hvb1wfSvfdH58w-1" vertex="1">
          <mxGeometry y="60" width="220" height="90" as="geometry" />
        </mxCell>
        <mxCell id="JA2Hr6hvb1wfSvfdH58w-2" value="NewsFeedEventDto" style="text;html=1;align=left;verticalAlign=middle;whiteSpace=wrap;rounded=1;fontFamily=Excalifont;fontSize=8;fontColor=#0000CC;sketch=1;curveFitting=1;jiggle=2;" vertex="1" parent="1">
          <mxGeometry x="455" y="590" width="77" height="20" as="geometry" />
        </mxCell>
        <mxCell id="JA2Hr6hvb1wfSvfdH58w-4" value="&lt;u&gt;NewsFeedRedisEntity&lt;/u&gt;&lt;div&gt;postId&lt;/div&gt;&lt;div&gt;timeStamp&lt;/div&gt;" style="text;html=1;align=left;verticalAlign=top;whiteSpace=wrap;rounded=1;fontFamily=Excalifont;fontSize=10;fontColor=#0000CC;labelBackgroundColor=none;labelBorderColor=none;sketch=1;curveFitting=1;jiggle=2;" vertex="1" parent="1">
          <mxGeometry x="810" y="376" width="100" height="62" as="geometry" />
        </mxCell>
      </root>
    </mxGraphModel>
  </diagram>
</mxfile>
